:version 1.10
:name ASF
:units
  mass 1
  length 1
  angle deg
:documentation
  ASF file generated by Kaydara
:root
  axis xyz
  order  tx ty tz rx ry rz
  position 0 0 0
  orientation 0 0 0
:bonedata
  begin
    id 1
    name SpineDummy
    direction 0.999998 -0.00179978 1.38929e-006
    length 3.60008
    axis 0 0 0 xyz
  end
  begin
    id 2
    name Spine
    direction 0.964365 0.262802 0.0305839
    length 8.13928
    axis 1.33928 -1.75354 15.2838 xyz
    dof rx ry rz
  end
  begin
    id 3
    name Spine1
    direction 0.811168 0.572065 0.12144
    length 7.14954
    axis 2.2224 -6.9761 35.2157 xyz
    dof rx ry rz
  end
  begin
    id 4
    name Neck
    direction 0 0 0
    length 0
    axis 2.2224 -6.9761 35.2157 xyz
    dof rx ry rz
  end
  begin
    id 5
    name HeadDummy
    direction 0.810939 0.572387 0.121455
    length 3.55534
    axis 2.2224 -6.9761 35.2157 xyz
  end
  begin
    id 6
    name Head
    direction 0.998226 -0.000232542 0.0595419
    length 7.35666
    axis -3.03688 -3.41352 -0.0133467 xyz
    dof rx ry rz
  end
  begin
    id 7
    name R_ClavicleDummy
    direction 0.531669 -0.194489 -0.824319
    length 2.49392
    axis 2.2224 -6.9761 35.2157 xyz
  end
  begin
    id 8
    name R_Clavicle
    direction -0.155119 0.0480802 -0.986725
    length 4.485
    axis -54.2764 80.6538 162.779 xyz
    dof rx ry rz
  end
  begin
    id 9
    name R_UpperArm
    direction -0.955567 0.200068 -0.216484
    length 10.1122
    axis -72.9943 12.5026 168.175 xyz
    dof rx ry rz
  end
  begin
    id 10
    name R_Forearm
    direction -0.61433 0.385743 0.688332
    length 9.39148
    axis -117.015 -43.4982 147.875 xyz
    dof rx ry rz
  end
  begin
    id 11
    name R_Hand
    direction -0.699429 0.0170333 0.714499
    length 3.66324
    axis -45.0303 -36.7097 175.478 xyz
    dof rx ry rz
  end
  begin
    id 12
    name L_ClavicleDummy
    direction 0.40287 -0.36502 0.839319
    length 2.49392
    axis 2.2224 -6.9761 35.2157 xyz
  end
  begin
    id 13
    name L_Clavicle
    direction -0.231271 -0.0726419 0.970174
    length 4.485
    axis 18.4357 -75.9711 -162.563 xyz
    dof rx ry rz
  end
  begin
    id 14
    name L_UpperArm
    direction -0.917494 0.144359 0.370629
    length 10.1122
    axis 56.0417 -21.7544 171.058 xyz
    dof rx ry rz
  end
  begin
    id 15
    name L_Forearm
    direction -0.496786 0.615074 -0.612281
    length 9.39148
    axis 89.8094 37.7546 128.927 xyz
    dof rx ry rz
  end
  begin
    id 16
    name L_Hand
    direction -0.409932 0.64962 -0.640274
    length 3.66324
    axis -0.424369 32.133 128.52 xyz
    dof rx ry rz
  end
  begin
    id 17
    name L_ThighDummy
    direction -1.84081e-006 1.87549e-006 1
    length 3.13049
    axis 0 0 0 xyz
  end
  begin
    id 18
    name L_Thigh
    direction -0.947739 0.307978 0.083308
    length 17.9961
    axis 173.219 -4.77873 161.998 xyz
    dof rx ry rz
  end
  begin
    id 19
    name L_Calf
    direction -0.728814 -0.684427 0.0197583
    length 13.3367
    axis 167.331 -1.13214 -136.799 xyz
    dof rx ry rz
  end
  begin
    id 20
    name L_Foot
    direction -0.9028 0.418719 0.0981191
    length 5.8674
    axis 163.436 11.5135 -155.37 xyz
    dof rx ry rz
  end
  begin
    id 21
    name L_Toe0
    direction -0.35341 0.886259 0.299411
    length 4.75286
    axis 169.316 -17.4222 111.74 xyz
    dof rx ry rz
  end
  begin
    id 22
    name R_ThighDummy
    direction 9.32778e-007 -8.82053e-007 -1
    length 3.13049
    axis 0 0 0 xyz
  end
  begin
    id 23
    name R_Thigh
    direction -0.925064 0.37528 -0.0585023
    length 17.9961
    axis -178.698 3.35385 157.919 xyz
    dof rx ry rz
  end
  begin
    id 24
    name R_Calf
    direction -0.68969 -0.718776 -0.0876886
    length 13.3367
    axis -160.504 5.03065 -133.817 xyz
    dof rx ry rz
  end
  begin
    id 25
    name R_Foot
    direction -0.857405 0.418858 -0.299022
    length 5.8674
    axis -161.328 4.38911 -154.413 xyz
    dof rx ry rz
  end
  begin
    id 26
    name R_Toe0
    direction -0.100745 0.952789 -0.286433
    length 4.75286
    axis 171.683 16.6445 96.0359 xyz
    dof rx ry rz
  end
:hierarchy
  begin
    root SpineDummy L_ThighDummy R_ThighDummy
    SpineDummy Spine
    Spine Spine1
    Spine1 Neck
    Neck HeadDummy R_ClavicleDummy L_ClavicleDummy
    HeadDummy Head
    R_ClavicleDummy R_Clavicle
    R_Clavicle R_UpperArm
    R_UpperArm R_Forearm
    R_Forearm R_Hand
    L_ClavicleDummy L_Clavicle
    L_Clavicle L_UpperArm
    L_UpperArm L_Forearm
    L_Forearm L_Hand
    L_ThighDummy L_Thigh
    L_Thigh L_Calf
    L_Calf L_Foot
    L_Foot L_Toe0
    R_ThighDummy R_Thigh
    R_Thigh R_Calf
    R_Calf R_Foot
    R_Foot R_Toe0
  end

:SAMPLES-PER-SECOND 30
:FULLY-SPECIFIED
:DEGREES
128
root  -6.92132 27.0674 0.328374 -146.748 -23.2344 76.9531
Spine  14.5029 10.2792 14.9432
Spine1  14.5269 -30.4537 -8.63266
Neck  3.97569e-016 0 -2.38542e-015
Head  10.6887 -11.9921 15.651
R_Clavicle  1.68401 8.74884 7.092
R_UpperArm  21.6128 30.6637 -25.5454
R_Forearm  53.4606 20.0542 -17.6796
R_Hand  -0.684152 -0.971869 -9.53276
L_Clavicle  -0.377035 9.82948 1.82134
L_UpperArm  -30.0518 7.03555 60.9848
L_Forearm  0.79357 31.4893 42.303
L_Hand  0.289603 5.78 3.08614
L_Thigh  -18.4569 -27.4282 24.4609
L_Calf  -5.12757 0.739806 -5.1206
L_Foot  4.5684 9.04419 8.37666
L_Toe0  0.505005 0.0344472 -6.13623
R_Thigh  30.874 -6.64295 1.60712
R_Calf  -2.64825 -6.6685 -21.2329
R_Foot  1.11224 2.79399 -3.50552
R_Toe0  -24.1962 9.35463 3.42307
129
root  -7.25419 28.1726 1.23965 -139.957 -21.3555 72.9284
Spine  13.203 11.7291 12.7438
Spine1  12.9357 -27.9376 -8.61144
Neck  3.97569e-016 0 -2.38542e-015
Head  9.94877 -15.7702 16.3008
R_Clavicle  0.387033 -0.102272 1.74719
R_UpperArm  19.5497 22.1932 -7.62848
R_Forearm  42.5733 22.1517 -19.7944
R_Hand  -0.335847 1.32809 -7.93967
L_Clavicle  -0.423481 12.0714 2.42074
L_UpperArm  -26.051 5.93154 54.3893
L_Forearm  -2.47887 27.6975 36.3663
L_Hand  0.29067 6.7102 2.90433
L_Thigh  -20.5227 -25.5661 23.5646
L_Calf  14.2646 -0.270318 3.15954
L_Foot  1.97388 5.46346 1.64202
L_Toe0  0.504965 0.0344475 -6.13626
R_Thigh  23.4435 -9.13037 5.07321
R_Calf  4.13992 -6.52533 -20.7835
R_Foot  0.215124 1.16858 1.15458
R_Toe0  -14.0674 4.77324 1.00238
130
root  -7.39518 29.5127 2.4515 -134.386 -18.8071 69.7429
Spine  12.5038 12.8552 11.6624
Spine1  12.1625 -25.8187 -9.372
Neck  3.97569e-016 0 -2.38542e-015
Head  8.09785 -19.1983 15.7502
R_Clavicle  0.260909 -12.2885 0.319398
R_UpperArm  16.54 16.688 13.6529
R_Forearm  34.8723 20.8814 -18.5039
R_Hand  -0.166913 2.79474 -7.95082
L_Clavicle  -0.440615 15.0587 1.92398
L_UpperArm  -21.0056 3.3269 46.7789
L_Forearm  -2.19285 23.0988 29.5861
L_Hand  0.624503 8.63747 5.33325
L_Thigh  -17.9898 -20.9299 20.2308
L_Calf  27.4873 -2.83307 16.734
L_Foot  -4.07161 -13.4621 -6.34898
L_Toe0  0.504938 0.0344477 -6.13629
R_Thigh  13.8969 -11.1865 7.72298
R_Calf  18.8892 -5.24548 -16.5842
R_Foot  -0.73904 -1.49781 2.44211
R_Toe0  7.23849 -2.30518 -1.4367
131
root  -7.29102 30.4698 3.62572 -130.759 -16.3832 67.7038
Spine  11.596 12.7608 10.7159
Spine1  11.3249 -23.4124 -10.8172
Neck  3.97569e-016 0 -2.38542e-015
Head  8.6402 -21.7965 13.6698
R_Clavicle  0.396062 -20.8455 0.248612
R_UpperArm  13.8147 13.4034 29.8816
R_Forearm  37.981 12.245 -10.412
R_Hand  -0.503694 3.9182 -12.951
L_Clavicle  -0.467924 16.8968 1.31816
L_UpperArm  -21.2325 1.83279 41.0437
L_Forearm  2.38466 16.6061 20.1379
L_Hand  1.28498 11.8759 8.63698
L_Thigh  -9.34803 -15.3751 15.2862
L_Calf  17.3502 -8.02428 30.0292
L_Foot  -5.15784 -19.648 -5.17129
L_Toe0  0.504925 0.0344478 -6.1363
R_Thigh  2.28056 -12.6003 8.53616
R_Calf  24.237 -3.64981 -11.4465
R_Foot  -0.91266 -2.47585 1.63952
R_Toe0  15.6135 -4.70782 -2.28827
132
root  -7.06547 30.6747 4.68079 -128.798 -13.9084 66.9616
Spine  9.9357 11.561 9.20041
Spine1  9.63138 -20.2013 -12.162
Neck  3.97569e-016 0 -2.38542e-015
Head  12.1852 -22.4688 9.25635
R_Clavicle  0.464192 -24.573 0.277281
R_UpperArm  11.5766 10.3984 37.7165
R_Forearm  51.9397 -1.6286 1.33644
R_Hand  -1.1641 5.35973 -19.9256
L_Clavicle  -0.471408 17.1021 1.30789
L_UpperArm  -26.4204 1.07564 36.9178
L_Forearm  4.0282 8.38705 9.79383
L_Hand  1.44071 13.3315 8.97241
L_Thigh  -4.99047 -7.40417 13.3483
L_Calf  4.68318 -8.3651 31.7416
L_Foot  -2.8733 -10.0434 -2.77484
L_Toe0  0.504922 0.0344478 -6.1363
R_Thigh  -4.96501 -13.0887 7.55119
R_Calf  18.1808 -2.45764 -7.63156
R_Foot  0.307742 3.41645 8.32436
R_Toe0  9.88755 -2.26334 -5.94084
133
root  -6.80693 30.4053 5.7006 -128.436 -11.6572 67.6937
Spine  7.80331 10.1908 7.93458
Spine1  7.3111 -17.4246 -12.3192
Neck  3.97569e-016 0 -2.38542e-015
Head  16.9121 -19.6188 2.02671
R_Clavicle  0.48951 -25.8843 0.247336
R_UpperArm  13.4576 6.25247 41.2868
R_Forearm  65.5972 -9.70958 8.16232
R_Hand  -1.38299 5.05409 -22.1082
L_Clavicle  -0.453056 16.0732 1.7715
L_UpperArm  -35.0109 -1.46213 32.5512
L_Forearm  -1.17106 0.733867 0.836273
L_Hand  0.755811 11.0824 5.53
L_Thigh  -3.95455 1.80289 12.4643
L_Calf  6.05946 -2.55915 21.8271
L_Foot  -1.31931 -3.68611 -2.37595
L_Toe0  0.504929 0.0344478 -6.1363
R_Thigh  -4.48446 -12.1484 6.35812
R_Calf  10.7506 -1.28725 -3.94768
R_Foot  0.828618 6.28112 16.4242
R_Toe0  2.28179 -0.574807 -7.86225
134
root  -6.58651 29.9054 6.57266 -129.618 -10.0344 69.5657
Spine  5.2963 8.73492 6.96907
Spine1  4.71055 -15.4759 -11.2003
Neck  3.97569e-016 0 -2.38542e-015
Head  21.5655 -12.9255 -5.75606
R_Clavicle  0.485403 -26.0955 0.460255
R_UpperArm  18.9023 1.4472 44.0258
R_Forearm  70.4179 -4.67478 3.88029
R_Hand  -0.933602 2.12399 -16.8897
L_Clavicle  -0.4344 13.911 2.27076
L_UpperArm  -44.7292 -5.93126 28.4668
L_Forearm  -9.31904 -5.23706 -6.08825
L_Hand  0.103373 8.74602 0.969275
L_Thigh  12.3977 9.1726 10.0703
L_Calf  5.22655 -0.429783 2.84059
L_Foot  -0.311794 -1.52616 0.265974
L_Toe0  0.504944 0.0344476 -6.13628
R_Thigh  -0.304274 -9.14162 5.63743
R_Calf  9.87861 -0.689619 -2.0522
R_Foot  -0.760761 4.0848 23.4622
R_Toe0  0.686055 -0.30401 -13.7682
135
root  -6.45534 29.5547 7.23109 -131.161 -8.92833 71.4926
Spine  1.54562 5.58966 5.27226
Spine1  1.51532 -12.2291 -10.2678
Neck  3.97569e-016 0 -2.38542e-015
Head  26.2788 -4.29155 -9.5652
R_Clavicle  0.444622 -24.0717 0.898841
R_UpperArm  18.2754 -1.27302 44.1813
R_Forearm  66.8952 9.34991 -7.88632
R_Hand  -0.551443 -0.365452 -8.28366
L_Clavicle  -0.426794 11.0147 2.64988
L_UpperArm  -50.951 -9.68558 27.235
L_Forearm  -13.5281 -9.38511 -11.0145
L_Hand  0.0149134 9.0932 0.368118
L_Thigh  22.9458 13.891 4.19079
L_Calf  6.7303 2.47019 -18.6462
L_Foot  1.69237 2.60948 4.63748
L_Toe0  0.504964 0.0344475 -6.13626
R_Thigh  1.4641 -5.48751 5.31321
R_Calf  11.6666 -0.404311 -1.12854
R_Foot  -2.63805 1.41596 27.4466
R_Toe0  -0.70381 -0.260566 -16.9246
136
root  -6.32563 29.829 7.77358 -131.755 -7.57856 73.0518
Spine  -3.25077 0.236061 3.2751
Spine1  -2.28426 -5.98963 -11.2669
Neck  3.97569e-016 0 -2.38542e-015
Head  30.7966 2.71049 -6.44936
R_Clavicle  0.401638 -19.3238 1.35886
R_UpperArm  13.6621 -0.364339 38.3182
R_Forearm  57.9857 21.943 -19.5817
R_Hand  -0.486341 -1.75532 -3.31906
L_Clavicle  -0.408638 8.86525 2.53099
L_UpperArm  -47.6292 -11.1161 28.3733
L_Forearm  -11.4458 -10.937 -12.903
L_Hand  0.484279 10.3353 3.72491
L_Thigh  26.262 16.0882 -3.91552
L_Calf  3.43751 4.76893 -37.7633
L_Foot  2.81858 4.82801 6.58465
L_Toe0  0.504989 0.0344473 -6.13624
R_Thigh  1.616 -2.59509 4.94088
R_Calf  11.2089 0.397928 1.38638
R_Foot  -3.39515 -0.392511 25.4525
R_Toe0  -0.619037 -0.281306 -16.8941
